<svg width="48" height="48" viewBox="0 0 48 48" fill="none" xmlns="http://www.w3.org/2000/svg">
<g clip-path="url(#clip0_464_36)">
<path d="M48 26.1622C47.5796 30.711 45.8724 35.0461 43.0782 38.6601C40.284 42.2741 36.5183 45.0176 32.2217 46.5696C27.9252 48.1215 23.2755 48.4177 18.8168 47.4235C14.358 46.4293 10.2746 44.1859 7.04439 40.9556C3.81415 37.7254 1.57068 33.642 0.576484 29.1832C-0.41771 24.7245 -0.121507 20.0748 1.43044 15.7783C2.98238 11.4817 5.72587 7.71601 9.33989 4.92178C12.9539 2.12755 17.289 0.420373 21.8378 0C19.1746 3.60302 17.8931 8.04226 18.2263 12.5103C18.5595 16.9784 20.4853 21.1784 23.6534 24.3466C26.8216 27.5147 31.0216 29.4406 35.4897 29.7737C39.9577 30.1069 44.397 28.8254 48 26.1622Z" fill="white"/>
</g>
<defs>
<clipPath id="clip0_464_36">
<rect width="48" height="48" fill="white"/>
</clipPath>
</defs>
</svg>
