<svg width="24" height="24" viewBox="0 0 24 24" fill="none" xmlns="http://www.w3.org/2000/svg">
<path d="M18.5802 2.94397C18.2052 2.56903 17.6966 2.3584 17.1662 2.3584C16.6359 2.3584 16.1273 2.56903 15.7522 2.94397L14.1072 4.58997L19.4102 9.89297L21.0552 8.24897C21.241 8.06324 21.3884 7.84273 21.489 7.60003C21.5895 7.35732 21.6413 7.09718 21.6413 6.83447C21.6413 6.57176 21.5895 6.31162 21.489 6.06892C21.3884 5.82621 21.241 5.6057 21.0552 5.41997L18.5802 2.94397ZM17.9962 11.307L12.6932 6.00397L3.85823 14.839L2.78223 21.219L9.16223 20.142L17.9962 11.307Z" fill="white"/>
</svg>
