<svg width="24" height="24" viewBox="0 0 24 24" fill="none" xmlns="http://www.w3.org/2000/svg">
<path d="M9.54566 1.00652C9.42509 1.02445 9.30995 1.0687 9.2084 1.13613C9.2084 1.13613 8.15759 1.7975 7.02787 2.51288C5.89815 3.22742 4.64133 4.01508 4.35391 4.17461L4.30158 4.19953C3.25825 4.84345 3.04144 5.89533 3.00406 6.48524C3.00157 6.51266 3.00406 6.53509 3.00406 6.56417C2.99492 6.78518 3.00406 6.92726 3.00406 6.92726V17.7808C3.00406 19.3578 4.84235 20.1164 6.58678 20.1164C7.16826 20.1164 7.74973 20.0225 8.24814 19.8563C8.58041 19.6902 8.81881 19.3578 8.81881 19.0255V10.3014C8.81881 8.39041 9.23415 7.49308 10.4802 6.7453C10.8124 6.57913 14.2963 4.17378 14.2963 4.17378C14.4624 4.0076 14.6336 3.67027 14.6336 3.42101V3.34291C14.6336 3.01057 14.4674 2.75632 14.2182 2.59015C13.969 2.42397 13.6368 2.42397 13.3875 2.59015C13.3045 2.67323 8.23734 6.0856 7.15746 6.6672C6.07757 7.33189 5.06996 7.49225 4.82076 7.1599C4.7435 7.08263 4.67622 6.84584 4.66542 6.61486V6.56251C4.66625 6.33652 4.7244 5.91111 5.18459 5.62779C5.65143 5.36773 6.81023 4.62743 7.93663 3.91455C8.41261 3.61294 8.47159 3.58054 8.84457 3.34291C8.89366 3.54589 9.01738 3.72293 9.19108 3.83879C9.36479 3.95465 9.57574 4.00083 9.78195 3.96815C9.98816 3.93547 10.1745 3.82631 10.3039 3.66242C10.4333 3.49852 10.4962 3.2919 10.4802 3.08368V1.83738C10.4811 1.71896 10.4567 1.6017 10.4086 1.49347C10.3605 1.38525 10.2899 1.28855 10.2014 1.20987C10.1129 1.13119 10.0086 1.07234 9.89551 1.03727C9.78242 1.0022 9.66313 0.991712 9.54566 1.00652ZM16.1911 3.91455C16.059 3.93652 15.9342 3.99011 15.8273 4.07075C15.8273 4.07075 11.6456 6.88489 10.9213 7.36762L10.8955 7.39421C10.2941 7.84537 9.93774 8.38211 9.77908 8.87315C9.69068 9.15028 9.64694 9.43971 9.64949 9.7306V9.99066C9.64829 10.0164 9.64829 10.0422 9.64949 10.0679V20.1164C9.64949 21.695 11.467 22.609 13.1284 22.609C13.876 22.609 14.5505 22.4478 15.0489 22.1155C16.0457 21.5339 20.8637 17.78 20.8637 17.78C21.1129 17.6138 21.279 17.3795 21.279 17.1303V6.32904C21.279 5.91361 21.1178 5.66435 20.7856 5.49817C20.5364 5.332 20.1268 5.4101 19.8776 5.57628C18.5486 6.57331 14.9708 9.38828 14.1401 9.8868C12.9772 10.5515 11.8815 10.7177 11.4662 10.3022C11.3001 10.1361 11.3109 9.97986 11.3109 9.7306C11.3153 9.58658 11.3327 9.46528 11.3632 9.36668C11.4097 9.22211 11.5044 9.0443 11.8558 8.77012C11.8724 8.75682 11.8641 8.75766 11.8815 8.74436C12.4821 8.34305 14.3187 7.09094 15.5166 6.27669C15.5844 6.45879 15.714 6.61134 15.8826 6.70779C16.0513 6.80425 16.2485 6.83852 16.4398 6.80463C16.6311 6.77074 16.8045 6.67085 16.9298 6.52233C17.0551 6.3738 17.1244 6.18604 17.1256 5.99171V4.74541C17.1265 4.62698 17.1021 4.50973 17.0541 4.4015C17.006 4.29327 16.9353 4.19658 16.8468 4.11789C16.7583 4.03921 16.654 3.98036 16.5409 3.94529C16.4278 3.91022 16.3086 3.89974 16.1911 3.91455ZM19.6176 9.99066V11.6524L15.4642 14.8712V13.2094L19.6176 9.99066Z" fill="white"/>
</svg>
