<svg width="24" height="24" viewBox="0 0 24 24" fill="none" xmlns="http://www.w3.org/2000/svg">
<path d="M11.286 22C13.337 22 15 20.42 15 18.47C15 16.926 13.955 15.613 12.5 15.134C12.295 13.371 10.72 12 8.81 12C6.758 12 5.095 13.58 5.095 15.53C5.095 15.96 5.177 16.374 5.325 16.756C5.14688 16.7231 4.96614 16.7063 4.785 16.706C3.248 16.706 2 17.89 2 19.353C2 20.816 3.247 22 4.786 22H11.286Z" fill="#FFD4D4"/>
<path d="M2.716 15.723C2.99467 15.5737 3.28867 15.4557 3.598 15.369C3.686 12.6 6.056 10.5 8.81 10.5C8.98267 10.5 9.153 10.508 9.321 10.524C9.10765 9.87055 8.99931 9.1874 9 8.5C8.99983 7.37991 9.28911 6.27877 9.83979 5.30339C10.3905 4.32801 11.1839 3.51149 12.143 2.933C12.54 2.693 12.463 2 12 2C6.477 2 2 6.477 2 12C1.99909 13.2753 2.24212 14.539 2.716 15.723ZM22 12C22 16.266 19.329 19.908 15.568 21.345C16.1755 20.51 16.5019 19.5036 16.5 18.471C16.5001 17.8223 16.3713 17.18 16.1212 16.5814C15.8711 15.9828 15.5046 15.4398 15.043 14.984C15.1943 14.994 15.3467 14.9993 15.5 15C16.6201 15.0002 17.7212 14.7109 18.6966 14.1602C19.672 13.6095 20.4885 12.8161 21.067 11.857C21.307 11.461 22 11.537 22 12Z" fill="white"/>
</svg>
