<svg width="72" height="72" viewBox="0 0 72 72" fill="none" xmlns="http://www.w3.org/2000/svg">
<path d="M33.858 66C40.011 66 45 61.26 45 55.41C45 50.778 41.865 46.839 37.5 45.402C36.885 40.113 32.16 36 26.43 36C20.274 36 15.285 40.74 15.285 46.59C15.285 47.88 15.531 49.122 15.975 50.268C15.4406 50.1692 14.8984 50.119 14.355 50.118C9.744 50.118 6 53.67 6 58.059C6 62.448 9.741 66 14.358 66H33.858Z" fill="#FFD4D4"/>
<path d="M8.14801 47.169C8.98401 46.721 9.86601 46.367 10.794 46.107C11.058 37.8 18.168 31.5 26.43 31.5C26.948 31.5 27.459 31.524 27.963 31.572C27.323 29.6117 26.9979 27.5622 27 25.5C26.9995 22.1397 27.8673 18.8363 29.5194 15.9102C31.1714 12.984 33.5516 10.5345 36.429 8.799C37.62 8.079 37.389 6 36 6C19.431 6 6.00001 19.431 6.00001 36C5.99726 39.8259 6.72637 43.617 8.14801 47.169ZM66 36C66 48.798 57.987 59.724 46.704 64.035C48.5265 61.5301 49.5056 58.5107 49.5 55.413C49.5002 53.4668 49.1139 51.5399 48.3636 49.7442C47.6133 47.9484 46.5138 46.3195 45.129 44.952C45.583 44.982 46.04 44.998 46.5 45C49.8603 45.0005 53.1637 44.1327 56.0898 42.4806C59.016 40.8286 61.4655 38.4484 63.201 35.571C63.921 34.383 66 34.611 66 36Z" fill="white"/>
</svg>
